<?xml version="1.0" encoding="utf-8"?>
<!-- Generator: Adobe Illustrator 28.0.0, SVG Export Plug-In . SVG Version: 6.00 Build 0)  -->
<svg version="1.0" id="katman_1" xmlns="http://www.w3.org/2000/svg" xmlns:xlink="http://www.w3.org/1999/xlink" x="0px" y="0px"
	 viewBox="0 0 1221.56 1024" style="enable-background:new 0 0 1221.56 1024;" xml:space="preserve">
<style type="text/css">
	.st0{fill:#F97316;}
	.st1{fill:#0A192F;}
</style>
<path class="st0" d="M580.25,289.22c26.28-26.89,53.03-53.31,80.26-79.24c28.91-27.52,58.82-54.83,91.16-78.31
	c1.59-1.15,1.65-1.08,0.18,0.23c-27.83,24.82-55.41,50.64-82.73,77.45c-29.24,28.7-58.88,56.98-88.93,84.83
	c-11.55,10.71-23,20.99-34.33,30.83c-1.93,1.67-2.01,1.59-0.23-0.24C556.83,313.24,568.37,301.39,580.25,289.22z"/>
<path class="st0" d="M298.65,443.38c19.28-0.98,37.91-4.1,55.89-9.36c6.05-1.77,12.9-3.97,20.56-6.58
	c6.71-2.29,13.88-5.72,20.94-8.4c0.04,0,0.08,0.03,0.09,0.07c0,0.03-0.01,0.05-0.03,0.07c-15.11,7.79-30.69,14.01-46.75,18.67
	c-3.37,0.97-7.95,2.04-13.75,3.21c-6.14,1.23-12.26,2.8-18.48,3.5c-13.77,1.56-27.35,3.72-40.72,6.49c-0.26,0.05-0.43,0.3-0.38,0.56
	c0.04,0.22,0.23,0.39,0.46,0.4c22.95,1.17,46.35-0.21,68.55-5.63c31.69-7.73,60.63-21.49,86.82-41.3
	c7.17-5.42,14.52-10.81,21.27-16.47c22.96-19.25,45.48-39.31,66.62-60.54c22.08-22.17,36.99-37.38,44.73-45.61
	c32.3-34.37,62.71-65.89,96.29-96.48c13.39-12.19,27.48-23.49,42.27-33.92c0.08-0.05,0.15-0.04,0.21,0.03l0,0
	c0.06,0.07,0.05,0.14-0.02,0.21c-15.54,14.08-31.62,27.76-46.59,42.44c-27.75,27.22-57.95,56.69-80.14,81.72
	c-12.43,14.03-21.1,23.62-25.99,28.77c-19.31,20.29-37.62,38.72-54.95,55.29c-27.43,26.23-59.41,51.45-94.42,69.08
	c-23.01,11.59-46.88,19.4-71.6,23.43c-17.89,2.93-36.32,2.7-57.39,2.41c-1.67-0.03-3.17,0.31-4.5,1c-13.02,6.84-20.2,22.64-14,36.57
	c10.49,23.56,51.28,31.72,74.66,34.16c20.97,2.2,39.73,3.61,59.69,1.74c32.63-3.07,63.82-11.4,93.56-25
	c16.63-7.6,32.45-18.54,46.89-29.72c7.16-5.53,13.84-12.95,20.85-19.41c5.32-4.91,13.12-9.36,20.32-9.21
	c7.13,0.15,14.18,4.36,14.39,12.3c0.01,0.3-0.07,0.6-0.22,0.86c-5.93,10.09-9.75,16.77-11.47,20.03
	c-8.65,16.41-17.79,38.57-27.19,58.17c-6.05,12.63-11.87,25.35-17.47,38.17c-0.05,0.13-0.02,0.22,0.11,0.27l0.27,0.12
	c0.01,0.01,0.01,0,0.02-0.01c6.12-13.45,11.92-24.81,17.39-34.08c8.03-13.6,27.28-39.31,45.16-38.57
	c7.82,0.32,13.27,4.38,13.76,12.5c0.49,7.94-2.33,14.34-4.54,21.7c-0.05,0.15,0,0.25,0.15,0.3l0.01,0.01
	c0.14,0.05,0.24,0.01,0.31-0.13c6.47-14.21,15.25-29.85,27.79-35.64c8-3.7,14.86-0.58,16.11,8.65c1.07,7.91-2.77,15.19-6.95,21.68
	c-0.09,0.13-0.07,0.24,0.06,0.33l0.01,0.01c0.13,0.09,0.24,0.07,0.33-0.06c13.47-17.72,27.72-36.02,45.96-49.1
	c5.61-4.02,13.72-6.63,19.93-2.99c6.46,3.8,5.06,10.32,2.66,16.71c-1.81,4.84-3.71,9.64-5.69,14.41c-0.01,0.03,0,0.04,0.02,0.05
	l0.23,0.11c0.17,0.07,0.29,0.03,0.37-0.14c7.6-16.05,17.01-30.99,30.5-42.39c7.07-5.97,17.85-11.29,26.9-8.78
	c6.47,1.79,9.84,7.39,8.52,13.94c-1.28,6.33-3.35,13.6-6.21,21.79c-8.85,25.36-17.98,54.34-27.37,86.95
	c-1.49,5.17-4.77,17.8,3.05,19.24c4.25,0.77,10.39-4.66,11.7-8.41c0.32-0.92,0.04-1.78,0.16-2.83c0.07-0.6,0.23-0.62,0.48-0.07
	c0.77,1.66,1.47,3.33,2.09,5.01c4.15,11.23,11.99,22.84,22.61,28.65c0.08,0.04,0.1,0.1,0.06,0.19l0,0c-0.04,0.09-0.1,0.11-0.19,0.07
	c-9.43-4.2-14.89-10.95-20.56-18.99c-0.26-0.37-0.52-0.37-0.78,0c-11.71,16.5-32.42,32.78-53.84,24.97
	c-10.55-3.85-7.2-18.62-5.05-27.8c5.93-25.33,11.4-45.9,16.42-61.71c3.91-12.3,7.63-24.66,11.17-37.07
	c0.89-3.11,1.21-6.17,0.96-9.18c-0.07-0.81-0.78-1.41-1.59-1.34c-0.27,0.02-0.52,0.12-0.74,0.28c-8.25,6.04-14.49,16.11-18.54,25.36
	c-6.05,13.86-11.42,27.98-16.09,42.37c-7.82,24.1-14.89,48.42-21.2,72.96c-0.09,0.33-0.29,0.53-0.62,0.61
	c-14.23,3.43-25.21,6.2-32.92,8.29c-3.02,0.82-6.06,2.27-9.13,4.36c-0.11,0.07-0.19,0.05-0.26-0.06l-0.13-0.21
	c-0.11-0.17-0.08-0.3,0.09-0.41c2.89-1.72,4.66-3.79,5.29-6.22c10.46-40,21.96-79.7,34.49-119.1c0.69-2.16,0.99-4.35,0.92-6.58
	c-0.01-0.34-0.29-0.6-0.63-0.59c-0.14,0-0.27,0.05-0.37,0.14c-7.79,6.37-13.51,13.11-20.75,21.79c-7.8,9.35-16.45,18.2-24.4,27.54
	c-8.34,9.81-15.86,20.91-23.39,31.71c-15.76,22.59-30.13,46.02-43.11,70.3c-0.23,0.42-0.1,0.63,0.38,0.62l0.27-0.01
	c0.12,0,0.21-0.05,0.27-0.16c8.15-14.28,16.76-28.28,25.83-41.99c1.8-2.72,2.09-2.57,0.87,0.46c-5.19,12.86-9.75,25.94-13.7,39.23
	c-0.09,0.31-0.3,0.52-0.61,0.62c-14.34,4.55-28.31,10.05-41.9,16.49c-0.01,0.01-0.02,0-0.02-0.01l-0.12-0.22
	c-0.08-0.15-0.05-0.28,0.1-0.37c3.11-1.86,5.12-4.41,6.04-7.64c9.96-35.07,20.04-70.1,30.23-105.1c2.35-8.08,8.07-24.44,3.14-28.95
	c-0.25-0.23-0.54-0.33-0.88-0.29c-22.29,2.36-50.14,102.9-55.02,122.76c-1.71,6.94-3.08,13.98-4.11,21.11
	c-0.04,0.26-0.19,0.39-0.45,0.39c-8.18,0.16-17.74,4.86-24.21,9.6c-10.54,7.74-17.8,19.71-21.64,32.24
	c-0.05,0.16-0.22,0.25-0.38,0.2c-0.1-0.03-0.18-0.12-0.2-0.23c-0.17-0.87-0.18-1.88-0.02-3.02c2.19-16.01,5.08-30.85,8.67-44.5
	c13.37-50.82,30.13-100.5,50.29-149.03c7.37-17.75,14.95-35.41,22.74-52.99c0.05-0.07,0.03-0.16-0.04-0.21
	c-0.06-0.04-0.14-0.03-0.19,0.02c-17.5,12.56-34.58,25.34-53.29,36.12c-26.59,15.31-46.59,26.71-71.19,37.2
	c-33.49,14.3-71.19,21.76-106.73,15.63c-28.58-4.92-54.75-24.8-59.13-54.9c-0.81-5.53-0.83-10.97-0.07-16.32
	c0.21-1.49,0.09-1.52-0.38-0.09c-2.41,7.32-3.16,14.84-2.27,22.57c3.68,31.72,36.18,50.23,63.82,57.29c0.1,0.03,0.14,0.09,0.12,0.19
	l0,0c-0.03,0.11-0.09,0.15-0.19,0.13c-27.03-3.95-54.67-20.74-65.59-46.6c-1.67-3.95-2.66-8.28-2.98-13
	c-1.42-21.21,6.52-35.76,19.48-51.41c3.18-3.85,6.37-7,9.58-9.47c13.68-10.56,30.51-15.91,46.98-20.26
	c12.03-3.17,24.06-6.35,36.09-9.52c34.97-9.24,68-23.09,99.08-41.54c0.09-0.06,0.17-0.04,0.23,0.05h0.01
	c0.06,0.09,0.05,0.17-0.04,0.23c-33.7,26.12-71.42,43.51-112.99,53.29c-11.98,2.82-23.95,5.71-35.9,8.68
	C298.35,443.37,298.35,443.39,298.65,443.38z M603.74,538.44c-8.03,18.59-14.53,37.45-19.5,56.57c-0.23,0.89-0.08,0.97,0.46,0.22
	c7.99-11.03,17.7-23.01,23.72-33.85c4.87-8.75,8.74-17.94,11.62-27.58c2.39-8.02,3.91-13.5,2.8-20.86c-0.04-0.26-0.29-0.44-0.55-0.4
	c-0.09,0.01-0.18,0.06-0.25,0.12C614.08,520.03,607.98,528.63,603.74,538.44z"/>
<path class="st0" d="M648.48,270.53c3.41-2.93,6.78-5.91,10.11-8.94c12.31-11.17,25.19-20.43,40.05-27.98
	c7.08-3.6,17.78-7.91,25.44-4.12c9.3,4.61,12.53,16.4,14.68,25.59c5.58,23.85-1.89,46.54-18.76,64.14
	c-9.93,10.35-22.06,20.97-36.41,31.84c-15.3,11.6-34.58,24.57-57.84,38.91c-4.79,2.95-10.53,6.34-17.23,10.17
	c-18.45,10.55-33.24,19.21-44.37,25.97c-5.95,3.62-12.21,8.31-18.79,14.08c-0.13,0.11-0.14,0.24-0.04,0.39l0.18,0.26
	c0.03,0.04,0.07,0.05,0.12,0.02c4.27-2.87,7.18-4.73,8.73-5.56c16.07-8.65,32.08-17.41,48.03-26.28
	c22.13-12.31,43.69-25.54,64.69-39.68c15.31-10.32,29.89-21.58,43.74-33.79c10.35-9.13,20.16-19.01,26.73-30.51
	c11.41-19.97,12.6-40.58,3.59-61.81c-0.01-0.04-0.05-0.06-0.11-0.07c-0.13-0.02-0.15-0.04-0.08-0.06c0.03-0.01,0.05,0,0.06,0.02
	c6.61,11.01,9.8,22.73,9.59,35.18c-0.43,25.54-16.16,44.47-34.75,59.9c-25.54,21.19-48.09,35.1-79.1,54.02
	c-5.47,3.33-11.23,6.69-17.28,10.06c-32.45,18.05-54.51,30.68-66.19,37.89c-6.81,4.2-20.48,13.73-40.99,28.58
	c-0.12,0.09-0.23,0.07-0.33-0.04l-0.19-0.23c-0.02-0.02-0.02-0.04,0-0.06c3.39-3.5,6.89-6.91,10.49-10.22
	c1.6-1.47,4.24-5.69,7.92-12.66c3.59-6.81,10.04-20.68,19.34-41.59c16.97-38.13,37.19-74.37,60.68-108.74
	c0.05-0.07,0.04-0.17-0.03-0.22c-0.06-0.05-0.15-0.04-0.21,0.01c-4.69,3.99-9.21,8.2-13.56,12.61
	c-15.51,15.74-30.83,31.66-45.96,47.77c-39.91,42.51-76.69,87.57-110.33,135.19c-3.58,5.07-8.64,13.09-15.19,24.07
	c-0.3,0.5-0.83,0.83-1.6,1c-19.28,4.09-38.82,6.83-58.62,8.21c-0.23,0.02-0.42-0.15-0.44-0.38c-0.01-0.1,0.02-0.19,0.08-0.27
	c18.69-25.63,39.2-49.83,61.53-72.62c19.35-19.75,39.28-38.91,59.77-57.48c36.54-33.11,67.29-59.62,105.14-87.58
	c4.3-3.18,14.34-9.67,20.93-15.22c2.59-2.17,5.31-5.03,8.16-8.58c20.72-25.78,43.89-49.16,69.51-70.13
	c14.78-12.09,30.5-22.79,47.17-32.1c23.55-13.16,55.89-24.68,81.77-11.59c18.64,9.43,27.51,29.97,28.33,50.36
	c0.57,14.17-1.83,27.32-7.2,39.43c-0.07,0.16-0.25,0.24-0.41,0.18l-0.27-0.09c-0.11-0.04-0.15-0.12-0.1-0.23
	c10.27-26.4,9.2-61.15-20.8-73.93c-22.04-9.38-48.3-4.13-69.53,5.92c-18.14,8.58-35.6,20.12-52.39,34.61
	c-18.99,16.39-34.88,31.79-47.66,46.18c-0.05,0.07-0.05,0.13,0.01,0.19l0,0C648.35,270.58,648.41,270.58,648.48,270.53z
	 M783.32,176.06c-7.91-0.17-15.98,1.32-24.19,4.49c-0.03,0.01-0.05,0.04-0.05,0.08c0.01,0.01,0.01,0.03,0.01,0.06
	c0.01,0.07,0.1,0.1,0.2,0.08c0,0,0.01,0,0.01,0c7.89-2.06,15.9-3.47,24.03-4.22C786.2,176.28,786.2,176.12,783.32,176.06z
	 M605.31,366.68c-2.79,5.1-7.58,14.73-11.97,21.84c-0.27,0.43-0.17,0.54,0.29,0.33c31.41-14.28,63.95-33.6,91.67-53.84
	c15.09-11.02,28.08-23.28,38.97-36.77c9.54-11.83,22.99-39.99,1.96-49.15c-8.99-3.91-22.66-2.65-31.45,1.9
	c-17.33,8.98-32.9,28.92-44.67,45.1C633.67,318.67,618.73,342.2,605.31,366.68z"/>
<path class="st1" d="M783.32,176.06c2.88,0.06,2.88,0.22,0.01,0.49c-8.13,0.75-16.14,2.16-24.03,4.22c-0.1,0.02-0.19-0.01-0.21-0.07
	c0,0,0-0.01,0-0.01c0-0.03,0-0.05-0.01-0.06c0-0.04,0.02-0.07,0.05-0.08C767.34,177.38,775.4,175.89,783.32,176.06z"/>
<path class="st0" d="M505.73,356.3c16.12-16.85,32.32-33.63,48.6-50.35c4.19-4.3,8.75-9.16,13.68-14.57
	c26.55-29.16,54.42-57,83.61-83.53c9.16-8.32,18.65-16.08,28.47-23.29c0.37-0.27,0.38-0.25,0.04,0.06
	c-5.42,4.95-11.19,9.91-16.36,14.94c-34.36,33.37-68.12,67.33-101.29,101.88c-8.76,9.12-27.6,27.57-56.52,55.36
	c-0.01,0.01-0.01,0.01-0.02,0l-0.21-0.21C505.63,356.5,505.63,356.4,505.73,356.3z"/>
<path class="st0" d="M693.5,231.7c21.24-19.38,47.79-35.42,75.37-44.07c7.72-2.42,17.27-4.43,25.3-2.56
	c0.21,0.05,0.3,0.18,0.27,0.39l-0.04,0.26c-0.01,0.05-0.03,0.07-0.07,0.06c-3.19-0.24-5.55-0.18-7.07,0.17
	c-35.17,8.26-63.07,27.99-93.39,46.24c-0.15,0.08-0.34,0.03-0.42-0.12C693.38,231.95,693.4,231.8,693.5,231.7z"/>
<path class="st0" d="M917.89,549.88c-5.95,10.69-12.18,21.2-18.68,31.55c-4.07,6.46-10.5,16.41-17.91,18.53
	c-5.71,1.63-10.37-0.12-13.98-5.27c-12.08-17.19-13.63-40.85-11.78-61.25c0.03-0.33,0.17-0.6,0.41-0.82
	c18.95-17.39,38.75-31.77,58.73-46.72c0.04-0.02,0.1,0,0.12,0.04c0.01,0.02,0.01,0.05,0,0.08c-10.84,14.2-18.15,32.07-23.86,49.16
	c-1.72,5.16-5.55,17.35-2.84,22.12c3.24,5.74,10.27,1.89,14.32-1.92c9.39-8.82,16.81-19.07,22.27-30.76
	c9.9-21.18,18.09-43.16,27-64.77c6.8-16.49,11.83-32.43,15.1-47.84c8.5-40.09-56.69-23.25-74.49-18
	c-20.07,5.91-36.23,11.67-48.48,17.28c-19.69,9.01-38.45,18.19-59.27,26.76c-15.23,6.28-22.84-3.91-22.7-17.81
	c0.13-13.2,4.25-25.17,12.36-35.9c0.13-0.19,0.39-0.23,0.57-0.1c0.15,0.11,0.22,0.32,0.15,0.5c-3.53,9.42-5.15,24.55,0.89,33.45
	c2.82,4.16,10.67-0.21,14-1.92c34.22-17.55,66.61-32.5,101.42-43.15c15.28-4.68,30.29-6.68,45.03-6.01
	c6.26,0.28,12.43,1.59,18.5,3.92c19.66,7.56,33.31,26.57,36.02,47.21c1.17,8.94,0.44,18.79-2.2,29.54
	c-5.43,22.14-14.02,43.4-22.5,64.51c-0.05,0.13-0.02,0.23,0.11,0.29l0.01,0.01c0.13,0.06,0.23,0.03,0.3-0.1
	c11.74-21.97,20.71-44.57,26.91-67.8c6.53-24.45,2.17-46.2-14.92-64.68c-0.23-0.26-0.3-0.62-0.18-0.94
	c6.81-17.88,12.24-35.18,16.31-51.9c2.56-10.55,3.81-21.44,3.76-32.65c-0.04-7.74-0.85-14.33-2.44-19.78
	c-6.38-21.85-24.17-33.65-46.59-34.38c-31.9-1.04-64.81,11.68-90.78,29.63c-7.68,5.31-15.56,12.12-22.87,18.6
	c-0.23,0.2-0.57,0.17-0.76-0.06c-0.15-0.17-0.17-0.43-0.06-0.62c7.33-12.27,16.61-20.9,29.16-28.79
	c29.15-18.32,66.24-27.83,101.07-22.09c14.53,2.39,27.66,7.72,39.39,15.98c21.54,15.14,32.79,37.28,30.21,64.25
	c-1.55,16.19-4.83,32.6-9.85,49.21c-6.38,21.08-13.5,42.05-20.81,62.83c-4.48,12.75-8.3,24.7-12.33,37.08
	c-2.05,6.27-4.26,12.22-6.65,17.83c-9.24,21.72-19.59,42.83-28.29,64.78c-1.51,3.8-3.61,11.63,0.72,13.94
	c4.21,2.25,14.71-10.12,17.12-13.08c16.63-20.4,27.76-46.39,28.59-72.84c0.25-7.77,0.45-16.28-1.24-23.89
	c-0.16-0.7,0.07-1.13,0.69-1.29c0.28-0.07,0.57,0.09,0.65,0.38c6.46,24.1,2.36,51.17-7.32,73.79c-11.11,25.96-28.11,47.2-51,63.71
	c-5.5,3.97-15.58,8.28-22.93,6.99c-14.96-2.63-14.4-18.17-10.56-29.08c2.08-5.91,4.3-11.78,6.65-17.61c0.03-0.08,0-0.16-0.08-0.2
	C918.01,549.78,917.92,549.81,917.89,549.88z M939.69,384.41c-16.57-2.84-32.79-1.98-48.65,2.58
	c-30.98,8.89-57.19,21.18-89.73,36.77c-7.32,3.5-13.71,6.06-20.9,8.36c-4.44,1.41-8.44,0.73-11.99-2.04
	c-0.37-0.29-0.48-0.21-0.34,0.24c2.57,8.46,10.8,7.17,17.45,4.93c3.89-1.31,12.26-4.99,25.12-11.04c0.04-0.02,4.37-2.11,12.98-6.28
	c21.57-10.44,43.83-19.06,66.79-25.87c12.24-3.63,24.09-6.22,36.11-7.53c3.93-0.43,8.3-0.34,13.11,0.26
	c0.13,0.01,0.2-0.04,0.21-0.16v-0.01C939.87,384.5,939.81,384.43,939.69,384.41z"/>
<path class="st1" d="M605.31,366.68c13.43-24.48,28.36-48.01,44.8-70.59c11.77-16.18,27.34-36.12,44.67-45.1
	c8.79-4.55,22.46-5.81,31.45-1.9c21.03,9.16,7.58,37.32-1.96,49.15c-10.89,13.49-23.88,25.75-38.97,36.77
	c-27.72,20.24-60.26,39.56-91.67,53.84c-0.46,0.21-0.56,0.1-0.29-0.33C597.73,381.41,602.52,371.78,605.31,366.68z M693.79,290.97
	c2.61-3.21,5.18-6.45,7.7-9.74c0.05-0.07,0.05-0.13-0.02-0.19h-0.01c-0.07-0.06-0.13-0.06-0.19,0.01
	c-16.59,17.79-33.5,35.26-50.75,52.43c-6.67,6.65-12.8,13.63-18.37,20.96c-0.13,0.17-0.1,0.42,0.08,0.55
	c0.15,0.11,0.36,0.1,0.5-0.02C654.75,335.22,675.11,313.89,693.79,290.97z"/>
<path class="st0" d="M751.41,361.96c10.11-11.85,19.11-22.79,27.02-32.82c7.84-9.95,16.33-19.05,25.46-27.28
	c1.91-1.73,6.28-5.18,13.09-10.36c7.3-5.56,14.11-11.69,20.42-18.38c0.05-0.06,0.12-0.09,0.2-0.09c0.99-0.05,1.01,0.02,0.07,0.2
	c-0.08,0.01-0.14,0.06-0.18,0.13c-4.55,7.47-10.14,14.08-16.78,19.82c-24.76,21.43-45.34,47.45-64.55,72.73
	c-10.24,13.48-21.25,26.6-32.47,38.13c-21.31,21.91-46.63,37.87-75.95,47.88c-17.14,5.85-34.65,10.1-52.53,12.77
	c-1.95,0.29-5.22,0.24-7.85,1.16c-0.05,0.02-0.09,0.02-0.14,0c-0.09-0.05-0.15-0.11-0.16-0.19c-0.02-0.1,0.02-0.16,0.12-0.19
	c38.66-12.7,77.04-27.01,108.27-52.54c9.13-7.46,18.63-16.67,28.52-27.64c6.74-7.48,13.21-16.26,19.51-24.74
	c2.14-2.88,4.56-6.31,7.27-10.28c10.28-15.08,19.53-27.42,27.76-37.02c11.22-13.1,23.84-24.68,37.85-34.73
	c7.39-5.31,14.07-11.27,20.02-17.88c0.12-0.15,0.34-0.18,0.49-0.07c0.14,0.11,0.18,0.3,0.09,0.46
	c-7.36,15.68-22.33,24.47-34.86,35.35c-20.99,18.24-36.67,41.34-51.1,65.28c-0.08,0.13-0.06,0.24,0.06,0.33l0.01,0.01
	C751.19,362.09,751.31,362.07,751.41,361.96z"/>
<path class="st0" d="M413.26,319.2c29.26-22.86,65.86-41.64,102.93-48.05c10.8-1.86,18.82-2.7,28.61-0.47
	c0.08,0.03,0.12,0.11,0.1,0.19c-0.02,0.05-0.06,0.09-0.12,0.1c-47.78,4.07-93.66,24.32-131.48,53.34
	c-6.49,4.98-12.92,10.06-19.31,15.24c-0.24,0.2-0.6,0.16-0.8-0.08c-0.04-0.04-0.07-0.1-0.09-0.15c-0.05-0.11,0.03-0.28,0.22-0.51
	C399.22,331.52,405.86,324.98,413.26,319.2z"/>
<path class="st0" d="M693.79,290.97c-18.68,22.92-39.03,44.25-61.06,64c-0.17,0.14-0.42,0.12-0.56-0.04
	c-0.12-0.14-0.13-0.34-0.02-0.49c5.57-7.33,11.7-14.31,18.37-20.96c17.25-17.17,34.16-34.64,50.75-52.43
	c0.06-0.07,0.12-0.07,0.19-0.01h0.01c0.07,0.06,0.07,0.12,0.02,0.19C698.97,284.52,696.4,287.76,693.79,290.97z"/>
<path class="st0" d="M744.25,311.26c-0.53,0.61-1.02,1.68-1.53,2.45c-0.05,0.07-0.15,0.11-0.23,0.09s-0.11-0.09-0.06-0.16l1.65-2.58
	c0.02-0.03,0.06-0.05,0.09-0.04c0.04,0.01,0.05,0.05,0.04,0.08l0,0c-0.02,0.05-0.01,0.1,0.04,0.15
	C744.25,311.25,744.25,311.25,744.25,311.26z"/>
<path class="st0" d="M622.56,476.38c-10.58,2.52-22.68,3.46-33.33,3.57c-0.06,0-0.09-0.03-0.09-0.08c0-0.01,0-0.03-0.01-0.05
	c0-0.03,0.02-0.05,0.05-0.05c33.54-3.94,64.73-14.36,93.58-31.26c19.09-11.18,36.45-26.63,51.21-43.06
	c7.7-8.57,16.65-20.5,24.56-31.9c15.16-21.81,28.87-41.99,48.39-59.27c0.03-0.03,0.07-0.04,0.1-0.01l0.2,0.17
	c0.14,0.12,0.15,0.25,0.03,0.39c-19.91,22.54-34.76,44.45-51.06,67.59c-5.11,7.25-11.23,15.05-18.34,23.41
	C707.2,441.84,668.77,465.36,622.56,476.38z"/>
<path class="st0" d="M733.61,323.86c0.11-0.07,0.22-0.13,0.33-0.18c0.26-0.11,0.29-0.06,0.09,0.13l-1.4,1.35
	c-0.28,0.27-0.35,0.22-0.22-0.15c0.08-0.23,0.21-0.42,0.4-0.57C732.88,324.37,733.15,324.18,733.61,323.86z"/>
<path class="st0" d="M368.94,376.36c26.77-13.27,57.29-23.03,87.24-25.09c3.25-0.23,6.35,0.3,9.65,0.58
	c0.08,0.02,0.13,0.1,0.11,0.18c-0.01,0.05-0.05,0.1-0.1,0.11c-49.11,6.85-96.05,24.36-136.36,53.54c-0.67,0.49-0.99,0.34-0.95-0.43
	c0.01-0.12,0.06-0.23,0.13-0.32C339.61,392.21,356.08,382.74,368.94,376.36z"/>
<path class="st0" d="M596.29,431.53c36.91-26.42,78.86-45.05,118.67-66.54c0.13-0.07,0.23-0.05,0.3,0.08l0.01,0.01
	c0.08,0.12,0.06,0.22-0.06,0.31c-12.77,9.19-25.42,17.08-37.94,23.65c-28.27,14.83-56.35,30.01-84.26,45.56
	c-0.1,0.07-0.23,0.04-0.3-0.05s-0.04-0.23,0.05-0.3l0,0C593.87,433.32,595.05,432.42,596.29,431.53z"/>
<path class="st1" d="M939.69,384.41c0.13,0.02,0.18,0.09,0.16,0.21v0.01c-0.01,0.12-0.08,0.17-0.21,0.16
	c-4.81-0.6-9.18-0.69-13.11-0.26c-12.02,1.31-23.87,3.9-36.11,7.53c-22.96,6.81-45.22,15.43-66.79,25.87
	c-8.61,4.17-12.94,6.26-12.98,6.28c-12.86,6.05-21.23,9.73-25.12,11.04c-6.65,2.24-14.88,3.53-17.45-4.93
	c-0.14-0.45-0.03-0.53,0.34-0.24c3.55,2.77,7.55,3.45,11.99,2.04c7.19-2.3,13.58-4.86,20.9-8.36
	c32.54-15.59,58.75-27.88,89.73-36.77C906.9,382.43,923.11,381.57,939.69,384.41z"/>
<path class="st0" d="M911.62,395.16c0.45-0.13,0.88-0.11,1.29,0.04c0.1,0.05,0.14,0.17,0.09,0.27c-0.03,0.06-0.09,0.11-0.16,0.11
	c-1.5,0.05-2.95-0.03-4.4,0.37c-9.45,2.62-15.42,4.42-17.9,5.41c-9.81,3.9-19.85,7.24-29.5,11.52
	c-21.55,9.56-42.85,19.58-64.55,28.79c-4.79,2.03-9.71,3.67-14.76,4.92c-3.87,0.95-7.59,0.47-11.17-1.45
	c-0.16-0.09-0.23-0.28-0.17-0.45l0.16-0.41c0.07-0.2,0.2-0.25,0.39-0.14c4.38,2.41,9.89,0.84,14.33-0.93
	c17.9-7.12,34.57-15.8,52.61-23.59c22.26-9.62,45.53-18.62,69.19-24.08C908.64,395.18,910.11,395.57,911.62,395.16z"/>
<path class="st0" d="M749,410.79c-14.72,20.3-31.84,38.23-51.35,53.79c-8.45,6.73-23.68,16.98-33.9,26.37
	c-4.08,3.75-8.55,8.78-13.41,15.1c-0.1,0.13-0.22,0.15-0.36,0.06l-0.23-0.14c-0.09-0.06-0.11-0.14-0.06-0.23
	c3.19-5.95,5.31-9.6,6.35-10.97c7.08-9.25,15.77-15.58,27.38-23.79c9.87-6.99,19.46-14.35,28.77-22.1
	c13.65-11.36,25.8-24.15,36.45-38.36c0.09-0.11,0.19-0.13,0.3-0.04h0.01C749.07,410.57,749.08,410.67,749,410.79z"/>
<path class="st0" d="M910.56,481.34c13.52-13.13,27.17-25.75,42.65-34.73c0.52-0.3,0.64-0.19,0.35,0.34
	c-1.52,2.83-3.57,5.4-6.14,7.69c-22.41,19.97-45.74,36.9-69.78,53.92c-6.7,4.74-15.59,9.37-23.14,14.83
	c-0.03,0.01-0.07,0.01-0.08-0.02c-0.01-0.02-0.01-0.04,0-0.05c0.96-1.8,2.03-3.56,2.82-5.43c13.25-31.59,34.57-56.23,63.94-73.92
	c4.21-2.54,8.62-4.65,13.22-6.34c5.44-2,15.56-3.24,18.54,3.07c0.76,1.6,0.15,2.65-1.83,3.15c-1.85,0.47-4.64,1.76-8.35,3.85
	c-13.43,7.59-24.87,20.07-32.45,33.44C909.93,481.8,910.02,481.87,910.56,481.34z"/>
<path class="st0" d="M759.73,581.41c10.67-11.59,22.04-22.51,34.09-32.77c0.05-0.04,0.12-0.03,0.15,0.02
	c0.03,0.03,0.03,0.08,0.02,0.11c-3.08,6.56-5.11,21.81-1.84,27.81c6.26,11.45,20.18-1.07,26.17-6.8
	c7.98-7.63,15.51-15.69,22.58-24.16c2.33-2.79,4.91-5.33,7.26-7.76c1.41-1.45,1.64-1.29,0.7,0.5c-5.5,10.43-11.03,20.3-18.12,30.03
	c-9.18,12.6-20.57,29.46-32.56,41.71c-7.62,7.79-15.34,9.5-23.17,5.13c-10.21-5.71-16.67-21.1-19.66-32.26
	c-5.99-22.39-2.89-43.78,9.31-64.18c5.55-9.27,10.29-16.26,14.24-20.96c17.06-20.31,37.67-35.53,61.83-45.66
	c14.12-5.92,29.66-9.55,44.95-11.77c8.03-1.17,16.08-2.28,24.13-3.35c0.98-0.13,1.87-0.11,2.67,0.08c0.35,0.08,0.57,0.43,0.49,0.78
	c-0.05,0.2-0.19,0.38-0.38,0.46c-10.57,4.67-19.26,7-32.04,9.22c-9.2,1.59-17.95,3.59-26.26,5.98c-14.65,4.22-26.3,12.3-36.56,24
	c-14.91,16.98-26.88,39.89-30.91,62.18c-0.13,0.72-0.18,1.14-0.15,1.26c0.29,1.13,0.66,1.16,1.13,0.09
	c6.99-15.92,13.06-29.99,23.31-46.05c8.87-13.88,22.12-28.28,37.75-34.48c7.84-3.11,18.49-1.56,15.19,10.14
	c-0.42,1.48-1.05,3.1-1.9,4.86c-12.08,25.03-34.32,41.91-56.7,58.61c-6.36,4.75-11.51,8.97-15.44,12.67
	c-9.49,8.92-18.35,18.45-26.56,28.59c-1.48,1.83-2.81,3.76-4,5.77c-0.06,0.08-0.04,0.18,0.04,0.24S759.67,581.49,759.73,581.41z
	 M834.11,487.81c2.49-4.94,3.73-9.89,3.72-14.84c-0.01-0.58-0.23-0.68-0.66-0.3c-16.83,14.82-29.32,36.65-37.56,57.39
	c-0.59,1.47-0.3,1.66,0.85,0.59C813.81,518.13,826.26,503.34,834.11,487.81z"/>
<path class="st0" d="M445.24,498.34c-0.12,0.07-0.28,0.02-0.36-0.1l-0.16-0.26c-0.09-0.14-0.07-0.26,0.06-0.36
	c15.37-11.65,31.81-21.82,47.88-32.48c10.24-6.79,19.91-14.31,29.01-22.55c0.01,0,0.01-0.01,0.01-0.01c0-0.01-0.01-0.01-0.02-0.01
	c-0.01,0.01-0.02,0.02-0.03,0.04l0,0C500.2,466.34,474.22,483.29,445.24,498.34z"/>
<path class="st0" d="M598.39,471.64c-1.59,0.27-3.02-0.22-4.46-0.26 M593.93,471.37c1.11-0.01,2.22-0.1,3.33-0.27
	c8.3-1.21,16.45-3.07,24.46-5.56c9.87-3.07,19.69-6.26,29.48-9.57c0.27-0.09,0.35-0.01,0.22,0.26c-0.07,0.13-0.18,0.24-0.35,0.31
	c-17.37,7.02-34.93,12.05-52.68,15.1L593.93,471.37z"/>
<path class="st1" d="M834.11,487.81c-7.85,15.53-20.3,30.32-33.65,42.84c-1.15,1.07-1.44,0.88-0.85-0.59
	c8.24-20.74,20.73-42.57,37.56-57.39c0.43-0.38,0.65-0.28,0.66,0.3C837.84,477.92,836.6,482.87,834.11,487.81z"/>
<path class="st0" d="M486.32,566.05c-12.15,32.14-22.76,64.78-31.81,97.93c-8.02,29.35-12.77,58.7-7.76,89.12
	c0.31,1.86-0.08,2.01-1.15,0.46c-0.25-0.37-0.72-1.02-1.05-1.33c-21.42-20.77-25.11-48.64-24.41-77c0.15-6.19,0.78-12.65,1.89-19.38
	c7.48-45.51,23.78-91.44,43.53-132.54c0.15-0.31,0.37-0.54,0.67-0.71c14.31-8.01,28.57-16.11,42.79-24.3
	c1.94-1.12,3.7-2.59,5.53-4.03c0.41-0.32,0.51-0.24,0.31,0.24C504.9,518.19,495.39,542.04,486.32,566.05z"/>
<path class="st0" d="M806.21,538.96c-0.12,0.07-0.21,0.07-0.26,0v-0.01c-0.05-0.07-0.04-0.14,0.05-0.2l40.34-31.82
	c0.01-0.01,0.01-0.01,0.02,0l0.17,0.19c0.11,0.12,0.09,0.25-0.05,0.38C834.16,519.39,820.73,529.88,806.21,538.96z"/>
<path class="st1" d="M603.74,538.44c4.25-9.81,10.35-18.41,18.3-25.78c0.19-0.18,0.5-0.17,0.68,0.03c0.06,0.07,0.11,0.16,0.12,0.25
	c1.11,7.36-0.41,12.84-2.8,20.86c-2.88,9.64-6.75,18.83-11.62,27.58c-6.02,10.84-15.73,22.82-23.72,33.85
	c-0.54,0.75-0.69,0.67-0.46-0.22C589.2,575.89,595.7,557.03,603.74,538.44z"/>
<path class="st0" d="M562.57,817.59c9.66,16.31,29.23,24.09,47.23,26.31c17.73,2.19,35.21,0.9,52.44-3.87
	c46.49-12.88,83.1-39.31,109.83-79.3c0.01-0.01,0.02-0.02,0.03-0.01l0.21,0.14c0.15,0.09,0.18,0.2,0.09,0.35
	c-12.15,21.39-28.12,39.39-47.93,54c-3.27,2.41-9.14,5.07-13.66,7.72c-21.34,12.53-44.35,20.47-69.03,23.82
	c-6.23,0.85-15.56,0.81-28-0.11c-26.55-1.97-56.41-16.38-64.39-43.89c-3.75-12.9-1.75-25.56,6-37.98c0.19-0.28,0.56-0.36,0.85-0.17
	c0.2,0.13,0.31,0.37,0.26,0.61c-2.59,12.62-0.06,24.19,7.58,34.72c1.98,2.73,5.81,6.31,11.48,10.76c0.25,0.2,0.5,0.19,0.75-0.02
	c1.64-1.45,3.35-2.89,5.18-4.07c43.41-27.86,88.29-53.09,134.66-75.68c0.32-0.15,0.34-0.34,0.06-0.56
	c-8.46-6.68-13.93-13.06-16.67-23.63c-0.1-0.37-0.3-0.44-0.6-0.21c-40.31,30.95-92.26,50.13-143.66,50.56
	c-14.36,0.12-28.5-2.63-42.42-8.24c-0.29-0.11-0.62,0.03-0.74,0.33c-8.77,23.33-26.97,42.22-47.71,55.34
	c-31.05,19.65-70.3,30.37-106.89,23.67c-37.49-6.88-62.64-31.8-69.7-69.9c-1.32-7.15-1.57-16.58-0.74-28.28
	c1.12-15.81,3.93-31.32,8.44-46.51c10.85-36.57,26.18-71.14,45.98-103.73c0.17-0.29,0.43-0.45,0.76-0.48
	c16.74-1.9,32.99-5.81,48.76-11.72c0.47-0.17,0.57-0.04,0.32,0.39c-26.02,43.86-48.26,92.59-58.3,142.04
	c-1.21,5.97-2.17,13.77-2.86,23.38c-1.16,16.07,1.35,34.22,8.93,48.26c14.58,26.98,45.22,32.98,73.6,29
	c34.67-4.87,63.75-20.6,87.24-47.2c4.01-4.54,7.34-9.53,10.01-14.97c0.13-0.28,0.02-0.61-0.25-0.74
	c-9.32-4.69-19.08-10.84-25.11-19.58c-0.14-0.21-0.08-0.49,0.12-0.62c0.14-0.1,0.33-0.1,0.48-0.02c7.19,4.33,14.98,6.92,23.35,7.79
	c0.75,0.08,1.08-0.25,0.99-1c-0.69-6.01-1.53-12.8-0.66-18.36c2.36-15.05,13.67-21.78,26.57-27.8c10.11-4.73,20.4-9.03,30.87-12.9
	c24.47-9.05,51.38-17.3,80.71-24.76c14.69-3.73,28.63-6.28,41.83-7.63c15.13-1.55,33.26-0.37,46.03,8.81
	c0.27,0.19,0.48,0.42,0.64,0.69c0.08,0.13,0.16,0.26,0.25,0.38c0.25,0.35,0.19,0.43-0.19,0.22c-4.57-2.51-9.68-3.82-15.31-3.94
	c-15.97-0.33-30.23,0.82-46.37,3.64c-43.77,7.67-86.33,19.68-127.7,36.03c-10.01,3.95-21.9,9.08-28.62,16.15
	c-10.45,11.01-6.38,26.55,8.18,30.97c5.47,1.66,10.39,2.7,14.77,3.12c18.72,1.79,37.31,1.14,55.83-2.35
	c28.77-5.41,55.79-15.47,81.05-30.16c18.86-10.97,35.44-25.49,54.56-36.1c11.7-6.5,23.84-12.05,36.41-16.65
	c0.33-0.12,0.5-0.49,0.38-0.83c0-0.01-0.01-0.02-0.01-0.03c-3.44-7.98-8.72-14.47-15.83-19.47c-0.06-0.04-0.08-0.13-0.04-0.19
	c0.03-0.05,0.1-0.07,0.16-0.06c10.21,2.77,18.69,8.19,25.42,16.28c0.22,0.26,0.49,0.35,0.82,0.26c15.53-4.09,34.7-8.26,57.51-12.52
	c5.65-1.06,17.8-3.78,36.45-8.17c22.23-5.23,43.98-11.97,65.27-20.22c32.25-12.5,62.27-37.49,75.59-69.86
	c3.25-7.9,5.92-15.91,8.02-24.02c0.02-0.02,0.05-0.03,0.07-0.01c0.01,0.01,0.02,0.02,0.02,0.03c-2.61,22.03-9.94,44.52-23.92,61.99
	c-13.99,17.48-31.15,30.99-51.47,40.52c-16.46,7.73-33.65,13.25-51.57,16.57c-37.9,7.01-76.23,8.85-112.61,21.37
	c-0.37,0.12-0.47,0.36-0.31,0.71c4.13,9.44,6.21,18.35,6.24,26.74c0.02,3.53,0.06,6.13,0.12,7.8c0.02,0.41,0.21,0.52,0.57,0.33
	c19.76-10.38,41.22-17.99,62.54-24.44c2.75-0.83,8.33-2.15,16.73-3.96c1.55-0.33,2.86-0.47,3.93-0.42c0.09,0.01,0.16,0.09,0.15,0.18
	c-0.01,0.07-0.05,0.12-0.11,0.15c-19.41,5.76-38.36,12.75-56.84,20.98c-8.93,3.97-17.65,7.83-26.17,11.57
	c-0.56,0.25-0.9,0.67-1.02,1.28l-0.55,2.81c-0.05,0.24,0.11,0.47,0.35,0.51c0.09,0.02,0.19,0.01,0.27-0.03
	c21.81-10.69,44.54-18.85,68.18-24.47c0.1-0.03,0.18,0,0.25,0.08l0.24,0.27c0.06,0.07,0.05,0.12-0.04,0.15
	c-17.63,6.17-39.52,14.83-65.66,26c-1.75,0.75-3.09,1.37-4.02,1.88c-0.32,0.18-0.54,0.49-0.6,0.84c-1.76,9.77-4.51,19.26-8.25,28.46
	c-0.19,0.45,0.03,0.97,0.49,1.16c0.15,0.06,0.31,0.08,0.47,0.06c49.39-6.94,97.87-33.12,119.39-79.45c0.09-0.19,0.33-0.27,0.52-0.18
	c0.11,0.05,0.18,0.15,0.21,0.26c0.07,0.27,0.08,0.58,0.05,0.95c-1.09,11.69-5.12,22.24-12.09,31.65
	c-8.76,11.81-18.2,21.38-28.32,28.7c-25.51,18.45-54.08,27.99-85.71,28.64c-0.3,0.01-0.57,0.19-0.7,0.46
	c-5.58,12.01-12.76,23.07-21.55,33.18c-17.3,19.89-37,34.85-59.09,44.87c-28.95,13.12-60.5,21.9-91.54,13.63
	c-13.92-3.71-26.6-10.1-38.05-19.19C562.43,817.21,562.37,817.26,562.57,817.59z M726.73,721.04c0.02-0.31,0.16-0.61,0.4-0.82
	c3.55-3.2,7.31-5.76,11.27-7.67c12.72-6.13,25.6-11.93,38.65-17.39c0.27-0.11,0.45-0.38,0.45-0.67c0.08-11.81-1.96-23.21-6.13-34.2
	c-0.13-0.33-0.35-0.43-0.68-0.28c-24.98,11.29-47.49,26.66-68.48,44.11c-0.42,0.35-0.55,0.94-0.33,1.44
	c4.55,10.12,11.77,17.71,21.66,22.76c0.35,0.18,0.72,0.2,1.09,0.07c0.83-0.31,1.82-0.76,2.95-1.36c14.76-7.81,30.54-15.14,47.34-22
	c2.26-0.92,2.89-2.45,2.31-4.72c-0.08-0.3-0.25-0.37-0.52-0.21c-14.82,8.7-32.02,15.99-46.73,21.95c-0.21,0.09-0.62,0.3-1.23,0.63
	C727.29,723.47,726.61,722.92,726.73,721.04z M777.15,708.54c0.06-0.33-0.16-0.65-0.49-0.71c-0.19-0.04-0.39,0.03-0.53,0.17
	c-0.56,0.55-1.34,1.07-2.34,1.54c-10.25,4.93-20.52,9.84-30.79,14.73c-4.56,2.16-9.54,4.01-14.32,6.03
	c-0.28,0.11-0.41,0.44-0.29,0.72c0.06,0.14,0.17,0.25,0.31,0.31c4.25,1.67,8.45,3.44,12.92,4.14c8.97,1.4,17.93,1.44,26.86,0.13
	c0.54-0.08,1.01-0.45,1.21-0.96C773.07,726.19,775.55,717.49,777.15,708.54z M727.36,736.37c-2.13-0.9-4.32-1.69-6.58-2.37
	c-0.29-0.09-0.61-0.01-0.82,0.21c-0.53,0.54-1.25,1.06-2.16,1.55c-39.06,21.31-80.94,44.85-125.64,70.61
	c-2.26,1.3-5.85,3.6-10.78,6.91c-0.34,0.23-0.32,0.44,0.05,0.61c10.1,4.93,21.3,7.98,33.61,9.15c28.79,2.74,55.62-2.02,80.49-14.29
	c28.98-14.29,52.79-35.63,68.98-63.88c0.11-0.2,0.04-0.46-0.17-0.57c-0.06-0.03-0.12-0.05-0.18-0.05
	C751.42,743.98,739.15,741.35,727.36,736.37z M687.66,820.8c0.69-0.38,0.66-0.45-0.09-0.22c-13.81,4.31-27.99,7.84-42.56,10.59
	c-15.54,2.93-31.1,3.28-46.68,1.03c-4.02-0.58-7.97-1.83-11.9-3.01c-0.11-0.03-0.19,0.01-0.23,0.12l0,0
	c-0.05,0.11-0.01,0.2,0.1,0.25c8.51,3.94,16.93,6.33,25.25,7.17C638.25,839.42,663.62,834.11,687.66,820.8z"/>
<path class="st0" d="M230.78,530.69c10.16,21,27.76,36.44,49.12,45.51c0.09,0.04,0.12,0.11,0.08,0.21l0,0
	c-0.04,0.09-0.11,0.12-0.2,0.09c-21.5-8.51-40.04-24.22-49.32-45.67c-0.04-0.1-0.01-0.17,0.09-0.22l0,0
	C230.65,530.56,230.73,530.59,230.78,530.69z"/>
<path class="st0" d="M582.23,658.27c-1.22,0.34-2.5,1.08-3.89,1.67c-0.14,0.06-0.31-0.01-0.37-0.15c-0.04-0.1-0.02-0.21,0.05-0.29
	c1-1.17,1.83-2.68,2.48-4.53c7.95-22.48,14.79-45.42,24.11-67.38c1.71-4.03,3.72-7.16,6.81-10.69c9.8-11.21,19.91-22.17,30.34-32.9
	c0.19-0.19,0.5-0.2,0.69-0.01c0.1,0.1,0.15,0.23,0.15,0.37c-0.01,0.31-0.07,0.68-0.19,1.11c-3.12,11.63-6.65,23.14-10.6,34.52
	c-6.22,17.95-12.46,35.88-18.72,53.81c-1.53,4.38-3.23,9.94-5.08,16.69c-0.09,0.31-0.29,0.52-0.61,0.61
	C599,653.48,590.61,655.87,582.23,658.27z"/>
<path class="st0" d="M945.53,625.3c-10.33,3.98-21.1,7.16-31.95,9.5c-0.08,0.02-0.13-0.01-0.15-0.09v-0.01
	c-0.02-0.08,0.01-0.13,0.09-0.15c45.56-12.11,85.82-38.17,106.12-81.65c0.04-0.09,0.11-0.11,0.2-0.07l0,0
	c0.09,0.04,0.11,0.1,0.08,0.19C1007.06,587.18,979.21,612.31,945.53,625.3z"/>
<path class="st0" d="M845.2,558.01l0.02,0.01c0.12,0.07,0.16,0.23,0.08,0.34l-5.46,9.02c-0.07,0.12-0.23,0.16-0.34,0.08l-0.02-0.01
	c-0.12-0.07-0.16-0.23-0.08-0.34l5.46-9.02C844.93,557.98,845.08,557.94,845.2,558.01z"/>
<path class="st0" d="M377.32,679c-6.08,21.3-8.98,45.29-6.18,66.37c1.57,11.83,4.72,25.21,11.54,34.71
	c0.06,0.08,0.05,0.15-0.03,0.22l0,0c-0.08,0.07-0.16,0.06-0.23-0.01c-9.03-10.07-13.28-24.91-15.03-37.45
	c-1.45-10.36-1.91-20.74-1.37-31.13c1.55-29.86,12.97-59.41,25.94-86.01c11.15-22.87,25.13-43.85,41.92-62.94
	c0.17-0.19,0.35-0.21,0.56-0.05l0.22,0.17c0.07,0.05,0.07,0.11,0.02,0.18C410.27,597.98,389.29,637.08,377.32,679z"/>
<path class="st0" d="M851.64,590.79c-8.92,10.37-19.25,19.08-30.98,26.12c-0.35,0.21-0.41,0.14-0.2-0.21
	c0.59-0.95,1.31-1.83,2.14-2.64c8.96-8.71,17.58-17.75,25.86-27.12c2.23-2.53,1-6.21,0.29-9.42c-0.07-0.32,0.03-0.58,0.32-0.77
	c0.17-0.11,0.39-0.06,0.5,0.1c0.02,0.03,0.03,0.06,0.04,0.09c2.98,9.03,7.4,17.26,13.25,24.7c0.77,0.98,0.7,1.05-0.23,0.22
	c-3.73-3.35-7.1-7.03-10.11-11.04C852.24,590.45,851.94,590.44,851.64,590.79z"/>
<path class="st0" d="M1019.4,583.06c0.08-0.21,0.09-0.2,0.02,0.01c-17.6,59.06-57.52,109.39-107.37,145.17
	c-31.05,22.29-70.84,40.2-108.82,35.27c-0.03,0-0.04-0.01-0.04-0.04l0.02-0.31c0.01-0.15,0.09-0.22,0.24-0.23
	c38.86-1.23,74.19-15.73,105.79-37.7C960.5,689.61,996.62,640.68,1019.4,583.06z"/>
<path class="st0" d="M218.84,657.38c12.37-24.12,29.33-44.22,50.88-60.29c6.72-5.01,14.81-9.32,22.43-13.58
	c0.07-0.05,0.13-0.03,0.18,0.05l0,0c0.05,0.08,0.03,0.14-0.04,0.19c-48.68,31.88-87.27,84.96-85.8,145.26
	c0.61,25.01,8.56,49.81,21.71,71.09c9.8,15.85,21.86,29.59,36.17,41.21c0.01,0.02,0,0.04-0.01,0.05c-0.01,0-0.02,0.01-0.03,0.01
	c-6.02-4.11-10.69-8.51-16.42-14.13c-29.74-29.18-44.69-64.68-44.84-106.5C202.99,699.15,208.24,678.03,218.84,657.38z"/>
<path class="st0" d="M510.44,843.15c0.01,0,0.02,0.01,0.02,0.02c0,0,0,0.01,0,0.01c-36.61,25.08-77.34,37.14-122.17,36.17
	c-47.31-1.03-92.1-19.64-126.99-51.39c-26.19-23.84-44.07-55.53-47.68-91.25c-0.66-6.54-0.71-13.19-0.15-19.94
	c3.37-40.28,23.19-76.57,52.73-103.74c12.83-11.8,25.72-21.31,41.54-28.11c1.13-0.48,2.27-0.68,3.44-0.59
	c0.59,0.05,0.64,0.24,0.15,0.57c-46.7,31.98-90.63,84.87-89.2,144.6c0.92,38.68,22.24,77.01,51.89,101.23
	c29.09,23.76,63.93,37.95,101.52,40.83c17.11,1.31,35.51,1.39,52.65-0.95C457.12,866.66,484.54,857.5,510.44,843.15z"/>
<path class="st0" d="M255.54,749.24c-4.51-48.22,17.33-97.9,51.62-131.3c0.07-0.07,0.15-0.07,0.23,0v0.01
	c0.08,0.07,0.09,0.14,0.02,0.23c-34.7,42.44-60.62,104.11-43.99,159.13c0.07,0.21,0,0.35-0.2,0.42l-0.25,0.09
	c-0.05,0.01-0.08,0-0.09-0.04C258.87,768.28,256.42,758.77,255.54,749.24z"/>
<path class="st0" d="M911.03,635.38c-0.45,0.17-0.91,0.28-1.37,0.32c-0.06,0.01-0.12-0.03-0.13-0.09s0.03-0.12,0.09-0.13l0,0
	l3.11-0.66c0.02,0,0.03,0.02,0.03,0.03c0,0.01,0,0.01-0.01,0.02c-0.24,0.15-0.48,0.24-0.72,0.29
	C911.51,635.25,911.18,635.33,911.03,635.38z"/>
<path class="st0" d="M420.13,785.46c0.27,0.1,0.41,0.18,0.44,0.23c0.29,0.63,0.14,0.78-0.47,0.45
	c-9.23-4.94-15.83-16.09-18.98-25.71c-7.34-22.4-6.82-49.34-2.05-71.44c2.37-10.97,6.11-22.99,11.24-36.04
	c0.04-0.11,0.12-0.14,0.23-0.1h0.01c0.11,0.04,0.14,0.12,0.11,0.23c-6.06,20.03-9.66,40.5-10.8,61.42
	c-1.34,24.54,1.44,52.67,19.87,70.7C419.84,785.31,419.97,785.4,420.13,785.46z"/>
<path class="st0" d="M847.2,736.3c-10.71,3.04-21.43,6.02-32.17,8.93c-0.03,0.01-0.04,0-0.05-0.03l-0.07-0.25
	c-0.05-0.16,0.01-0.26,0.17-0.31c46.25-14.63,85.83-44.56,108.72-87.59c1.79-3.36,2.25-3.19,1.39,0.52
	c-0.77,3.33-1.55,7.43-2.79,10.85c-11.1,30.42-43.85,55.39-73.42,67.54C848.5,736.16,847.78,736.13,847.2,736.3z"/>
<path class="st0" d="M563.49,692.48c37.23-14.5,75.08-25.08,113.54-31.75c11.56-2.01,23.57-2.84,36.04-2.5
	c3.66,0.1,7.33,1.18,10.75,2.26c0.12,0.04,0.2,0.14,0.23,0.26c0.01,0.09,0.03,0.17,0.04,0.26c0.01,0.05-0.03,0.09-0.08,0.1
	c-0.01,0-0.01,0-0.02,0c-3.43-0.41-8.05-0.25-13.86,0.49c-20.61,2.63-34.22,4.55-40.83,5.78c-33.61,6.23-66.71,14.52-99.29,24.87
	c-6.79,2.15-13.58,4.29-20.37,6.4c-0.12,0.04-0.2,0-0.25-0.12v-0.01c-0.04-0.11,0-0.2,0.11-0.25
	C554.12,696.24,558.78,694.31,563.49,692.48z"/>
<path class="st1" d="M726.73,721.04c-0.11,1.88,0.56,2.43,2.02,1.64c0.61-0.33,1.02-0.54,1.23-0.63
	c14.71-5.96,31.91-13.25,46.73-21.95c0.27-0.16,0.44-0.09,0.52,0.21c0.58,2.27-0.05,3.8-2.31,4.72c-16.8,6.86-32.58,14.19-47.34,22
	c-1.13,0.6-2.12,1.05-2.95,1.36c-0.37,0.13-0.74,0.11-1.09-0.07c-9.89-5.05-17.11-12.64-21.66-22.76c-0.22-0.5-0.09-1.09,0.33-1.44
	c20.99-17.45,43.5-32.82,68.48-44.11c0.33-0.15,0.55-0.05,0.68,0.28c4.17,10.99,6.21,22.39,6.13,34.2c0,0.29-0.18,0.56-0.45,0.67
	c-13.05,5.46-25.93,11.26-38.65,17.39c-3.96,1.91-7.72,4.47-11.27,7.67C726.89,720.43,726.75,720.73,726.73,721.04z"/>
<path class="st0" d="M344.34,834.91c15.39,6.5,30.62,9.21,45.69,8.13c16.39-1.17,32.63-5.32,48.72-12.43
	c5.79-2.56,11.68-5.67,17.69-9.33c24.91-15.18,46.04-34.76,63.41-58.74c0.2-0.28,0.6-0.34,0.88-0.14c0.02,0.01,0.03,0.03,0.05,0.04
	c4.9,4.46-8.34,21.15-12.13,25.45c-38.03,43.21-87.91,68.21-146.61,59.2c-20.36-3.13-43.33-13.19-58.12-27.71
	c-19.99-19.63-31.67-46.01-32.16-74.28c-0.16-9.02-0.06-14.98,0.29-17.87c2.75-22.74,9.67-44.11,20.76-64.11
	c0.07-0.13,0.18-0.17,0.33-0.1l0,0c0.15,0.07,0.19,0.18,0.13,0.32c-8.8,21.43-13.75,43.65-14.84,66.66
	c-2.3,48.11,23.85,92.31,73.1,102.93c42.93,9.27,87.2-3.7,121.61-29.84c4.32-3.28,10-8.13,17.03-14.55c0.1-0.09,0.2-0.08,0.29,0.02
	h0.01c0.09,0.1,0.09,0.2-0.01,0.29c-8.18,7.81-16.79,16.22-25.62,22.38c-34.88,24.3-78.78,34.27-120.49,23.63
	C344.12,834.81,344.12,834.82,344.34,834.91z"/>
<path class="st0" d="M679.74,676.69l0.59-0.24c0.14-0.06,0.3,0.01,0.35,0.15c0.01,0.02,0.01,0.04,0.02,0.06l0.04,0.31
	c0.03,0.17-0.05,0.27-0.22,0.3c-27.96,4.65-47.07,9.19-70.72,13.25c-0.1,0.02-0.16-0.02-0.18-0.12l0,0
	c-0.02-0.1,0.02-0.16,0.11-0.19c21.87-6.15,43.02-11.9,65.79-13.81c0.83-0.07,1.97,0.06,3.4,0.37
	C679.2,676.83,679.47,676.8,679.74,676.69z"/>
<path class="st0" d="M646.5,695.94c-25.07,7.35-50.03,16.95-72.57,30.3c-0.19,0.11-0.44,0.04-0.55-0.15
	c-0.09-0.17-0.06-0.38,0.09-0.5c14.7-12.86,33.17-21.49,51.91-26.51c7.82-2.09,13.81-3.6,20.99-3.9c0.22,0,0.39,0.17,0.4,0.38
	C646.77,695.73,646.66,695.89,646.5,695.94z"/>
<path class="st1" d="M777.15,708.54c-1.59,8.95-4.08,17.65-7.46,26.1c-0.2,0.51-0.67,0.88-1.21,0.96
	c-8.93,1.31-17.89,1.27-26.86-0.13c-4.47-0.7-8.67-2.47-12.92-4.14c-0.29-0.11-0.43-0.44-0.32-0.72c0.05-0.14,0.16-0.25,0.3-0.31
	c4.78-2.02,9.76-3.87,14.32-6.03c10.27-4.89,20.54-9.8,30.79-14.73c1-0.47,1.78-0.99,2.34-1.54c0.23-0.24,0.61-0.24,0.85,0
	C777.12,708.14,777.18,708.34,777.15,708.54z"/>
<path class="st0" d="M452.2,766.89c0.72-3.87,1.26-7.84,2.54-11.56c6.21-17.95,20.46-33.07,36.32-43.07
	c0.23-0.15,0.42-0.21,0.59-0.19c0.23,0.02,0.39,0.21,0.38,0.45c-0.01,0.08-0.04,0.16-0.09,0.22c-3.13,3.96-7.14,7.77-9.95,11.26
	c-9.91,12.31-19.05,25.57-27.43,39.76c-0.76,1.29-1.29,2.37-1.6,3.23c-0.06,0.17-0.18,0.24-0.36,0.19l-0.26-0.07
	C452.22,767.08,452.18,767.01,452.2,766.89z"/>
<path class="st0" d="M616.66,755.64c-4.67,0.8-9.22,1.43-13.65,1.89c-0.04,0.01-0.08-0.01-0.08-0.05c-0.01-0.04,0.02-0.08,0.06-0.1
	c0,0,0,0,0,0c5.77-1.34,11.6-2.88,17.48-4.61c26.97-7.95,53.8-16.03,80.49-24.22c0.41-0.12,0.74-0.01,1.01,0.32l0.25,0.32
	c0.28,0.37,0.21,0.65-0.2,0.86C674.92,743.56,646.29,750.56,616.66,755.64z"/>
<path class="st0" d="M220.25,810.32c-2.51-3.81-4.15-6.6-4.92-8.37c-6.1-14.13-11.61-29.3-13.99-44.53
	c-0.85-5.43-1.5-10.87-1.97-16.33c0-0.06,0.05-0.11,0.12-0.1c0.04,0,0.08,0.03,0.09,0.06c1.16,3.48,0.96,7.47,1.52,10.42
	c7.08,37.34,25.21,74.75,58.2,95.75c2.17,1.39,5.07,2.49,8.68,3.3c0.13,0.03,0.18,0.1,0.15,0.23l-0.05,0.29
	c-0.05,0.25-0.29,0.43-0.55,0.41c-18.33-1.7-31.75-14.61-42.68-28.56c-20.91-26.69-30.03-59.57-29.12-93.44
	c0-0.04,0.03-0.07,0.07-0.07h0c0.01,0,0.03,0,0.04,0c0.03,0.01,0.04,0.02,0.04,0.05c0.34,24.49,6.32,48.09,17.95,70.8
	c2.34,4.57,4.43,7.97,6.28,10.2c0.04,0.03,0.09,0.03,0.13,0C220.26,810.4,220.27,810.35,220.25,810.32z"/>
<path class="st1" d="M727.36,736.37c11.79,4.98,24.06,7.61,36.8,7.88c0.23,0.01,0.41,0.21,0.4,0.44c0,0.06-0.02,0.13-0.05,0.18
	c-16.19,28.25-40,49.59-68.98,63.88c-24.87,12.27-51.7,17.03-80.49,14.29c-12.31-1.17-23.51-4.22-33.61-9.15
	c-0.37-0.17-0.39-0.38-0.05-0.61c4.93-3.31,8.52-5.61,10.78-6.91c44.7-25.76,86.58-49.3,125.64-70.61c0.91-0.49,1.63-1.01,2.16-1.55
	c0.21-0.22,0.53-0.3,0.82-0.21C723.04,734.68,725.23,735.47,727.36,736.37z"/>
<ellipse transform="matrix(0.9415 -0.3371 0.3371 0.9415 -200.4248 326.4709)" class="st0" cx="839.93" cy="740.4" rx="4.4" ry="0.23"/>
<path class="st0" d="M460.11,766.02c4.78-9.63,10.54-18.6,17.28-26.91c0.06-0.07,0.15-0.08,0.28-0.05c0.13,0.04,0.16,0.11,0.08,0.22
	c-6.37,8.6-12.09,17.6-17.18,27.01 M460.46,766.49l-0.24-0.12c-0.15-0.08-0.18-0.2-0.11-0.35L460.46,766.49z"/>
<path class="st0" d="M297.75,824.04c6.48,6.87,13.74,12.78,21.79,17.71c0.09,0.05,0.08,0.1-0.01,0.13
	c-0.03,0.01-0.05,0.01-0.08,0.02c-0.05,0.03-0.1,0.02-0.15-0.01c-9.93-5.71-18.52-12.98-25.78-21.81c-0.07-0.08-0.06-0.15,0.01-0.22
	l0.01-0.01c0.07-0.07,0.15-0.06,0.22,0.01C295.09,821.24,296.42,822.63,297.75,824.04z"/>
<path class="st1" d="M687.66,820.8c-24.03,13.31-49.4,18.62-76.11,15.93c-8.32-0.84-16.74-3.23-25.25-7.17
	c-0.11-0.05-0.15-0.14-0.1-0.25l0,0c0.04-0.11,0.12-0.15,0.23-0.12c3.93,1.18,7.88,2.43,11.9,3.01c15.58,2.25,31.14,1.9,46.68-1.03
	c14.57-2.75,28.75-6.28,42.56-10.59C688.31,820.35,688.34,820.42,687.66,820.8z"/>
<path class="st0" d="M484.81,865.6c21.29-10.71,41.61-23.14,60.95-37.29c0.33-0.24,0.78-0.26,1.14-0.05l0.23,0.14
	c0.15,0.09,0.21,0.28,0.12,0.44c-0.02,0.03-0.03,0.05-0.06,0.07c-6.63,6.03-13.78,11.39-21.45,16.07
	c-13.9,8.48-26.28,15.53-41.03,20.7c-0.02,0.01-0.03,0-0.04-0.02c-0.01-0.01-0.01-0.02-0.01-0.03c-0.01-0.01,0-0.01,0.01-0.01
	c0.03,0,0.05,0,0.08,0C484.77,865.62,484.79,865.61,484.81,865.6z"/>
<path class="st0" d="M620.66,865.12c-24.45-1.02-50.67-9.01-67.51-27.89c-0.02-0.03-0.02-0.09,0.01-0.11c0.03-0.02,0.06-0.02,0.09,0
	c14.01,12.3,30.35,19.9,49.04,22.81c29.15,4.54,59.67-0.25,86.3-10.7c1.14-0.45,5.46-2.25,12.96-5.42
	c4.89-2.06,9.46-4.51,14.52-6.26c0.24-0.09,0.51,0.04,0.6,0.28c0.08,0.21,0,0.44-0.19,0.56
	C687.46,857.68,655.52,866.59,620.66,865.12z"/>
<ellipse transform="matrix(0.279 -0.9603 0.9603 0.279 -386.8415 1186.4155)" class="st0" cx="596.66" cy="850.82" rx="0.13" ry="2.44"/>
</svg>
