<svg version="1.1" id="Layer_1" xmlns="http://www.w3.org/2000/svg" xmlns:xlink="http://www.w3.org/1999/xlink" x="0px" y="0px"
	 width="100%" viewBox="0 0 1024 1024" enable-background="new 0 0 1024 1024" xml:space="preserve">
<path fill="#F97316" opacity="1" stroke="none" 
	d="
M1025.000000,440.000000 
	C1025.000000,469.020905 1025.000000,498.041779 1024.825562,527.382019 
	C1020.888489,525.483459 1020.786194,529.390198 1020.328918,530.861267 
	C1018.457520,536.881836 1016.261230,542.939819 1016.124939,549.297607 
	C1015.944458,557.717468 1014.278442,565.869812 1012.146301,573.898499 
	C1010.125122,581.509399 1004.637756,586.937927 997.893616,590.316101 
	C994.192322,592.170227 991.076416,594.169373 988.424744,597.222717 
	C977.856750,609.391479 973.312561,624.617737 968.070435,639.246887 
	C963.945984,650.756714 956.628723,658.258606 946.616455,664.293213 
	C938.303833,669.303406 928.888367,671.836792 920.620117,676.981445 
	C906.371216,685.847351 892.258118,695.233643 874.751099,696.738586 
	C871.726807,696.998596 869.066162,698.829041 867.319763,701.414795 
	C863.374878,707.255493 859.735291,713.472290 859.330444,720.570374 
	C858.911072,727.924500 857.253235,735.050476 856.539612,742.332153 
	C855.608765,751.830505 853.875000,761.114502 847.701843,768.962341 
	C845.450195,771.824768 843.788940,775.143555 841.717041,778.156982 
	C832.151978,792.069031 825.542297,807.965942 813.263550,820.067932 
	C806.877441,826.362183 801.715942,833.933899 794.431702,839.272217 
	C784.719360,846.389954 775.664734,854.144165 767.912048,863.384155 
	C763.846497,868.229736 759.935303,873.234558 755.549622,877.776733 
	C737.410461,896.562988 719.011169,915.098633 700.920837,933.931396 
	C690.723511,944.547180 679.592590,953.990479 666.697144,961.002380 
	C656.780640,966.394409 646.317993,970.790100 636.653625,976.695862 
	C630.053406,980.729309 622.918335,983.759766 617.769165,990.174072 
	C614.588135,994.136780 611.588562,998.365845 607.729553,1001.883362 
	C599.931885,1008.991150 590.487000,1014.215271 583.976440,1022.833862 
	C583.045349,1024.066406 583.260559,1024.273438 584.000000,1025.000000 
	C525.645752,1025.000000 467.291534,1025.000000 408.610107,1024.863770 
	C406.800720,1021.278198 403.419739,1019.304199 400.624756,1017.960083 
	C385.317017,1010.598450 373.541199,998.289856 359.400513,989.293701 
	C349.252411,982.837524 338.343903,978.945862 327.120789,975.301025 
	C316.216400,971.759766 305.215698,968.255188 296.291748,960.518860 
	C286.989655,952.454529 277.973328,944.098389 269.321716,935.322327 
	C254.748444,920.539307 239.154083,906.732788 227.148361,889.564331 
	C220.366272,879.865784 212.603867,870.909790 204.156128,862.652283 
	C186.187271,845.088196 167.516846,828.310364 147.673492,812.835327 
	C131.364609,800.116760 116.938522,785.343506 102.697746,770.376221 
	C90.557266,757.616455 79.930107,743.898010 72.610542,727.763733 
	C70.832100,723.843689 69.378654,719.496460 65.855927,716.793213 
	C56.857807,709.888367 50.843437,700.164917 42.025684,692.885376 
	C32.277084,684.837341 26.062464,673.423706 21.632313,661.335449 
	C19.731674,656.149353 17.289562,651.132263 12.307302,648.132080 
	C8.982183,646.129822 5.197193,644.851807 2.904595,641.057495 
	C2.061935,642.359375 1.530960,643.179688 0.999992,644.000000 
	C1.000000,571.312439 1.000000,498.624878 1.239565,425.639648 
	C1.912586,425.581512 2.457859,426.127136 2.763103,426.015625 
	C9.816585,423.439178 17.609102,422.314667 21.519606,414.340912 
	C27.740620,401.655884 36.665443,392.119995 49.669968,385.149261 
	C62.888824,378.063629 72.987778,366.846252 78.104202,351.687073 
	C81.220978,342.452515 84.177940,333.070068 88.892838,324.341431 
	C95.028282,312.983032 104.940994,304.858551 112.846115,295.035675 
	C117.290901,289.512634 121.965965,284.010254 127.591087,279.453857 
	C143.953842,266.199860 158.507004,251.207153 171.517334,234.595108 
	C178.559875,225.602951 184.694763,215.657593 194.377975,208.968460 
	C211.068695,197.438522 227.790115,186.034653 242.439392,171.766953 
	C253.048340,161.434341 264.878082,152.242798 273.627258,140.198242 
	C285.917572,123.278709 301.442596,110.383217 319.509247,100.155647 
	C332.112366,93.021004 344.429565,85.402390 355.520477,75.961266 
	C360.346985,71.852722 365.846588,68.737831 371.531647,65.909409 
	C391.056915,56.195202 412.056885,51.971745 433.406067,48.911549 
	C437.843689,48.275452 442.547150,47.814980 446.528534,45.975746 
	C460.925690,39.324795 476.542053,35.858677 490.715912,28.687712 
	C494.670715,26.686863 498.932312,26.167639 503.355988,26.433203 
	C518.640869,27.350801 530.801331,34.896351 541.961060,44.540886 
	C554.426270,55.313698 568.321106,63.585453 583.610779,69.796684 
	C592.547913,73.427292 602.230835,73.681007 611.127747,76.814407 
	C641.522461,87.519135 662.306580,108.352196 673.960510,138.313660 
	C676.451416,144.717468 678.715332,151.422729 683.894470,156.023682 
	C697.299194,167.932022 711.012268,179.236847 730.824158,178.175507 
	C738.320679,177.773895 744.709351,181.305786 748.642090,188.230072 
	C750.419189,191.358948 753.055542,193.723114 756.061768,195.523239 
	C770.837036,204.370697 778.525940,218.282822 783.875916,233.929306 
	C786.193298,240.706909 788.409607,247.527023 790.995605,254.202408 
	C793.217834,259.938751 797.262634,264.274261 802.363831,267.774933 
	C815.595032,276.854828 830.211853,282.644592 845.696899,286.427887 
	C853.370300,288.302612 859.915649,292.169067 865.329529,297.789062 
	C869.523010,302.142181 874.273743,305.718750 879.044189,309.369080 
	C892.284363,319.500427 904.841309,330.420410 916.012634,342.857666 
	C928.367310,356.612335 940.838135,370.287231 955.465820,381.693481 
	C962.665405,387.307434 968.731628,393.690521 973.560364,401.446442 
	C975.802429,405.047638 978.553345,408.725311 983.602600,408.800995 
	C996.375244,408.992432 1003.898865,415.670807 1007.435974,427.644684 
	C1009.355408,434.142487 1012.735962,439.199493 1020.711914,438.774963 
	C1022.115601,438.700226 1023.569336,439.567657 1025.000000,440.000000 
M585.906616,279.391510 
	C583.958008,281.206085 581.953247,282.964355 580.069519,284.843964 
	C562.138428,302.736176 544.332458,320.755310 526.279663,338.523621 
	C510.544342,354.010925 486.497406,356.302643 468.348694,344.403046 
	C443.371613,328.026276 439.920013,293.657074 461.229279,272.073944 
	C479.727325,253.338135 498.590302,234.959625 516.933044,216.074509 
	C531.864197,200.701752 528.297119,176.276367 510.000824,165.347351 
	C497.191956,157.696198 480.888062,160.116608 469.298096,171.665527 
	C442.146790,198.720551 414.896484,225.680573 388.060272,253.045837 
	C370.211884,271.246094 351.263428,288.329803 333.917511,307.034637 
	C327.463470,313.994293 320.338379,320.330017 313.847168,327.257446 
	C310.252106,331.094116 305.027466,332.438690 301.551514,336.481537 
	C298.619171,339.892151 297.076874,344.082794 293.784454,347.347351 
	C260.653656,380.197754 227.987534,413.519928 194.663605,446.171448 
	C168.777191,471.535645 160.831039,502.919678 163.721146,537.397827 
	C166.044205,565.111206 178.514664,588.985107 198.136963,608.692078 
	C265.629425,676.475708 333.270386,744.111694 400.931915,811.726624 
	C414.440765,825.226257 427.321899,839.396729 443.766022,849.702209 
	C463.732056,862.214844 485.183807,867.445496 508.506836,864.235657 
	C535.063599,860.580688 557.348450,848.553162 576.008423,829.363159 
	C589.830994,815.148010 604.004456,801.273438 618.069946,787.295776 
	C622.623047,782.771118 625.489563,782.611267 629.682617,786.338684 
	C631.101562,787.599976 632.330139,789.913208 634.568298,787.682556 
	C636.630615,785.626953 635.466187,783.812622 633.821594,782.077454 
	C630.856384,778.949097 630.525818,775.414856 633.383545,772.228333 
	C637.046936,768.143372 640.942810,764.225769 645.060608,760.602112 
	C648.506104,757.569946 652.023438,758.231750 655.094910,761.746521 
	C655.911865,762.681396 655.982483,764.354858 658.047119,764.523193 
	C659.518555,762.893433 661.811340,761.722168 662.579407,759.217285 
	C655.195801,752.065674 655.187683,750.167053 662.354797,742.959412 
	C670.227234,735.042603 678.335022,727.344116 685.925598,719.165649 
	C709.115723,694.179199 720.475525,664.754883 716.693481,630.573853 
	C711.891418,587.174011 688.761414,556.694702 649.259033,538.461365 
	C646.087402,536.997375 642.679565,535.967590 640.995117,532.451660 
	C640.314392,531.030701 639.191345,531.048828 637.648438,531.270996 
	C627.216675,532.772827 617.136414,532.686462 609.178894,523.567200 
	C606.646667,530.333496 600.424805,529.666016 594.937622,530.182373 
	C569.088562,532.615051 546.724304,542.772522 528.165649,560.805542 
	C510.121033,578.339111 492.574127,596.383972 474.680298,614.074524 
	C470.750275,617.959961 468.161621,622.235657 467.012543,627.695435 
	C466.133820,631.870544 466.162598,636.018066 466.461823,640.108215 
	C467.571075,655.269775 475.663422,666.305725 489.186066,672.116943 
	C501.102631,677.237976 510.622955,670.417175 518.991150,662.301208 
	C519.230347,662.069214 519.457581,661.825012 519.693298,661.589355 
	C536.311584,644.979675 553.424133,628.830017 569.422302,611.643066 
	C588.942444,590.672546 614.376953,591.517395 638.103943,602.755676 
	C651.831543,609.257629 659.189941,628.818787 656.742493,642.114075 
	C654.271973,655.534607 646.601013,665.763916 637.730896,674.806213 
	C601.205017,712.041138 564.174622,748.782349 527.213196,785.588196 
	C508.056305,804.664368 479.621368,804.825500 460.457214,785.793396 
	C423.209229,748.802002 386.094818,711.675049 349.100006,674.430420 
	C330.690491,655.896606 330.171967,628.047729 348.284760,609.213074 
	C369.630310,587.016785 380.659821,560.804199 381.665497,530.176636 
	C381.822449,525.397339 384.453430,522.644104 388.552460,522.690918 
	C392.573120,522.736816 395.115387,525.581848 395.340088,530.358521 
	C395.646881,536.879761 394.663483,543.313599 393.789795,549.733704 
	C392.584778,558.587952 389.757843,567.090149 387.684082,575.789001 
	C392.962067,569.677612 394.715912,562.091675 396.967499,554.692627 
	C401.359344,540.260315 401.879822,525.345581 400.242737,510.692200 
	C397.156158,483.064575 385.242889,459.397430 365.434845,439.592163 
	C357.065338,431.223816 353.792206,420.365082 354.747711,408.490814 
	C354.953583,405.932129 355.746521,403.447266 354.630371,400.741211 
	C352.385040,403.038879 351.095062,405.704376 350.363495,408.637390 
	C347.345367,420.738068 349.979279,431.454468 358.632874,440.468414 
	C366.053589,448.198090 372.818085,456.405884 378.055481,465.775543 
	C380.378693,469.931793 379.519165,473.739807 376.143005,475.900360 
	C372.724976,478.087708 368.889557,477.208130 366.366089,473.065277 
	C360.780273,463.894867 353.753174,455.932556 346.635315,447.962799 
	C331.197968,430.677948 331.357880,404.018799 346.682770,386.697968 
	C361.501862,369.948792 387.616272,365.870728 409.814941,376.265778 
	C417.921783,380.061981 423.613098,386.593536 430.270172,392.012390 
	C441.902344,401.481049 454.470459,409.463593 468.949585,413.161255 
	C482.876221,416.717834 497.059113,422.137299 511.739899,415.741913 
	C512.031738,415.614807 512.400940,415.676514 512.728333,415.618011 
	C533.923096,411.831299 552.954102,403.160217 568.497192,388.307617 
	C589.332886,368.397400 609.574524,347.854736 629.741882,327.260986 
	C638.107239,318.718750 639.857788,307.859497 636.835571,296.542480 
	C631.005493,274.711395 604.814392,266.049438 585.906616,279.391510 
M846.578064,557.121338 
	C865.209351,544.487244 867.721252,521.572998 851.787109,505.524933 
	C815.151917,468.627747 778.282654,431.963165 741.548279,395.164307 
	C733.266418,386.867889 723.297974,383.576416 711.895569,385.469482 
	C703.626221,386.842438 695.525208,389.928986 692.627075,398.604767 
	C687.287109,414.590637 690.381531,429.069366 702.574158,441.247406 
	C739.717834,478.346680 776.669006,515.640686 814.045288,552.503784 
	C824.809814,563.120544 832.119080,564.661560 846.578064,557.121338 
M835.625366,461.868774 
	C809.818970,436.068848 783.998230,410.283264 758.221252,384.453918 
	C754.264648,380.489258 749.568970,377.730225 744.565125,375.403107 
	C743.376038,374.850098 742.062866,374.176636 740.903564,376.116760 
	C743.179321,379.556610 747.181152,381.191132 750.060486,384.079559 
	C787.586182,421.724060 825.338074,459.144501 862.692200,496.957916 
	C874.442993,508.853210 878.775757,523.502747 874.682190,540.156616 
	C874.223511,542.022766 873.989136,543.944092 873.607056,546.084717 
	C875.981628,545.243835 876.624695,543.433899 877.471863,541.872375 
	C885.157532,527.706055 882.170715,508.522797 870.400024,496.680298 
	C859.006165,485.217102 847.554932,473.810913 835.625366,461.868774 
M400.743134,706.756592 
	C423.262451,729.239075 445.796967,751.706421 468.286407,774.218750 
	C472.094666,778.030945 476.142212,781.439758 481.260254,783.325867 
	C482.407776,783.748657 483.676025,784.673340 485.269836,782.995056 
	C483.338318,779.685242 479.674774,778.083740 477.066833,775.463135 
	C440.399994,738.618774 403.535767,701.970581 366.939941,665.056091 
	C356.899323,654.928101 352.463715,642.623108 355.499023,628.148804 
	C355.846924,626.489624 357.296051,624.582764 355.828613,622.457703 
	C353.960632,623.770203 353.193420,625.457825 352.394531,627.078857 
	C346.284302,639.476501 348.628845,654.359985 358.598389,664.494873 
	C372.384338,678.509521 386.351440,692.345947 400.743134,706.756592 
M721.672363,592.951782 
	C735.398254,626.705994 734.071777,660.338684 719.943970,695.172974 
	C739.465088,667.453003 744.462891,616.349365 720.729614,576.127869 
	C709.122803,556.457214 674.849976,526.980347 661.510742,527.989929 
	C689.274658,543.009338 709.172241,564.121948 721.672363,592.951782 
M542.281433,172.207077 
	C537.162354,161.790497 529.687988,154.196838 517.653076,151.861526 
	C525.530273,158.835281 532.801392,166.083878 536.771057,176.066879 
	C540.715271,185.985657 541.035583,196.133377 539.672974,206.582153 
	C547.353638,195.860809 546.985657,184.557526 542.281433,172.207077 
M656.342712,290.141602 
	C653.825684,277.876556 639.565491,263.195679 629.617554,264.673248 
	C648.033997,278.652618 655.830322,296.354340 651.411682,318.931702 
	C658.237366,310.332397 658.680908,300.870789 656.342712,290.141602 
M484.819733,335.672455 
	C485.167664,333.089966 482.861237,332.554749 481.458191,331.334442 
	C470.289520,321.620422 465.168854,309.499023 467.147552,294.702667 
	C467.432343,292.572998 467.129211,290.726959 466.937286,288.025482 
	C461.408081,294.780273 460.748657,301.940491 461.337128,309.347778 
	C462.350983,322.109772 472.783112,334.083496 484.819733,335.672455 
z"/>
<path fill="#F97316" opacity="1.000000" stroke="none" 
	d="
M264.640533,575.571411 
	C241.463425,573.320007 223.885178,553.950989 223.030884,530.130066 
	C222.247192,508.277740 239.196930,487.613525 260.719635,483.612976 
	C273.158173,481.300964 285.198395,483.727051 296.377350,487.971985 
	C316.737335,495.703278 326.464264,516.033997 319.015320,536.731934 
	C312.795715,554.014160 301.715637,568.330933 282.810394,574.036865 
	C277.078644,575.766846 271.133057,576.733582 264.640533,575.571411 
M241.969437,546.488586 
	C246.821381,553.876587 253.099808,559.111206 262.352020,560.671814 
	C262.230377,558.159302 260.736938,557.524475 259.569855,556.685852 
	C246.335403,547.175476 241.197922,534.219788 243.182068,518.238342 
	C243.358963,516.813538 243.427643,515.577881 241.731430,515.090759 
	C235.733795,521.452515 235.685623,534.218140 241.969437,546.488586 
z"/>
<path fill="#F97316" opacity="1.000000" stroke="none" 
	d="
M388.335693,512.622620 
	C383.290009,513.744385 380.682861,511.433197 379.433258,507.217377 
	C377.967316,502.271759 376.589600,497.298798 375.254700,492.315948 
	C374.141602,488.160889 375.570160,485.067139 379.552490,483.410797 
	C382.931702,482.005341 386.694336,483.929688 388.280609,487.936676 
	C390.429688,493.365417 391.914062,499.007721 392.856018,504.768707 
	C393.435364,508.312286 391.935394,510.903107 388.335693,512.622620 
z"/>
</svg>